# xmcd
#
# Track frame offsets: 
#        150
#        8746
#        24581
#        38483
#        53163
#        68805
#        83066
#        97245
#
# Disc length: 1448 seconds
#
# Revision: 0
# Processed by: cddbd v1.5.2PL0 Copyright (c) Steve Scherf et al.
# Submitted via: ExactAudioCopy v0.99pb3
#
DISCID=5a05a608
DTITLE=Micke Björklöf and Blue Strip - From Four Until Late
DYEAR=1997
DGENRE=Blues
TTITLE0=They're Red Hot
TTITLE1=Dump That Chump
TTITLE2=Caldonia
TTITLE3=I Got My Mojo Working
TTITLE4=Wrong To Cry
TTITLE5=From Four Until Late
TTITLE6=Rock Me Baby
TTITLE7=Big Boss Man
EXTD=
EXTT0=
EXTT1=
EXTT2=
EXTT3=
EXTT4=
EXTT5=
EXTT6=
EXTT7=
PLAYORDER=
